<svg xmlns="http://www.w3.org/2000/svg" xmlns:xlink="http://www.w3.org/1999/xlink" width="198.116" height="67.029" viewBox="0 0 198.116 67.029">
  <defs>
    <clipPath id="clip-path">
      <rect id="Rectangle_1670" data-name="Rectangle 1670" width="198.116" height="67.029" fill="none"/>
    </clipPath>
  </defs>
  <g id="Group_831" data-name="Group 831" transform="translate(0 0)">
    <path id="Path_921" data-name="Path 921" d="M29.1.072V26.26L9.517.072H0V42.505H10.124V16.377L29.642,42.505h9.517V.072Z" transform="translate(0 0.074)" fill="#fff"/>
    <path id="Path_922" data-name="Path 922" d="M32.691,8.558v8.425H52.938v8.488H32.691v8.547h23.1v8.486H21.9V.072H55.12V8.558Z" transform="translate(22.552 0.074)" fill="#fff"/>
    <path id="Path_923" data-name="Path 923" d="M88.148,0l-9.01,25.278L67.621,0H55.8L62.819,14.99,75.624,42.811h7.031L92.838,17.192l.061,25.3h9.517V0Z" transform="translate(57.458 0)" fill="#f21d6f"/>
    <path id="Path_924" data-name="Path 924" d="M60.533,0,50.348,25.619,50.289.319H40.772V42.811H55.041l9.008-25.278L75.567,42.811H87.388L80.368,27.819,67.566,0Z" transform="translate(41.983 0)" fill="#fff"/>
    <path id="Path_925" data-name="Path 925" d="M80.913.3V42.729H114.8V34.243H91.7V25.7h20.248V17.208H91.7V8.783h22.43V.3Z" transform="translate(83.317 0.305)" fill="#f21d6f"/>
    <g id="Group_828" data-name="Group 828" transform="translate(0 0)">
      <g id="Group_827" data-name="Group 827" clip-path="url(#clip-path)">
        <path id="Path_926" data-name="Path 926" d="M5.592,27.27c2.651,0,4.34,1.12,4.34,2.886A2.6,2.6,0,0,1,7.906,32.7a2.865,2.865,0,0,1,2.432,2.921c0,1.963-1.756,3.2-4.545,3.2H0V27.27Zm-2.6,4.618H5.421c.879,0,1.437-.461,1.437-1.2S6.3,29.513,5.421,29.513H2.99Zm0,4.668H5.421c1.116,0,1.808-.479,1.808-1.3C7.23,34.477,6.538,34,5.421,34H2.99Z" transform="translate(0 28.08)" fill="#fff"/>
        <path id="Path_927" data-name="Path 927" d="M21.686,33.968c0,3.053-2.076,4.981-5.389,4.981s-5.456-1.928-5.456-4.981v-6.7h3.008v6.7a2.352,2.352,0,0,0,2.466,2.523A2.3,2.3,0,0,0,18.7,33.968v-6.7h2.99Z" transform="translate(11.163 28.08)" fill="#fff"/>
        <path id="Path_928" data-name="Path 928" d="M31.9,28.492l-1.133,2.294a8.931,8.931,0,0,0-3.783-1.2c-.775,0-1.3.28-1.3.84,0,2,6.249.859,6.249,5.032,0,2.308-2.095,3.53-4.731,3.53A8.962,8.962,0,0,1,21.8,37.136l1.167-2.261a7.465,7.465,0,0,0,4.273,1.731c.946,0,1.536-.345,1.536-1,0-2.046-6.249-.826-6.249-4.916,0-2.127,1.875-3.481,4.713-3.481A9.03,9.03,0,0,1,31.9,28.492" transform="translate(22.447 28.013)" fill="#fff"/>
        <path id="Path_929" data-name="Path 929" d="M39.331,38.817h-2.99V35.172l-4.374-7.9h3.006L37.827,32.3l2.789-5.032h3.006l-4.291,7.818Z" transform="translate(32.917 28.08)" fill="#fff"/>
        <path id="Path_930" data-name="Path 930" d="M55.246,27.27c3.716,0,6.284,2.342,6.284,5.775,0,3.414-2.6,5.772-6.4,5.772H50.164V27.27Zm-2.076,9.2h2.145a3.152,3.152,0,0,0,3.158-3.414,3.236,3.236,0,0,0-3.294-3.448H53.17Z" transform="translate(51.654 28.08)" fill="#fff"/>
        <path id="Path_931" data-name="Path 931" d="M73.942,33.077c0,3.365-2.736,5.921-6.4,5.921-3.649,0-6.385-2.539-6.385-5.921,0-3.365,2.736-5.856,6.385-5.856,3.666,0,6.4,2.507,6.4,5.856m-9.712.016a3.4,3.4,0,0,0,3.343,3.448,3.432,3.432,0,1,0-3.343-3.448" transform="translate(62.972 28.03)" fill="#fff"/>
        <rect id="Rectangle_1669" data-name="Rectangle 1669" width="3.006" height="11.547" transform="translate(148.632 55.35)" fill="#fff"/>
        <path id="Path_932" data-name="Path 932" d="M89.126,38.817l-5.44-7.11v7.11H80.867V27.27h2.651L88.973,34.4V27.27h2.805V38.817Z" transform="translate(83.269 28.08)" fill="#fff"/>
        <path id="Path_933" data-name="Path 933" d="M103.248,32.994v4.5A9.442,9.442,0,0,1,98.332,39a5.989,5.989,0,0,1-6.316-5.9c0-3.349,2.787-5.872,6.519-5.872a7.665,7.665,0,0,1,4.831,1.715l-1.689,2a4.913,4.913,0,0,0-3.158-1.254,3.431,3.431,0,1,0,.032,6.862,5.1,5.1,0,0,0,2.095-.56V32.994Z" transform="translate(94.75 28.031)" fill="#fff"/>
      </g>
    </g>
  </g>
</svg>
