<svg xmlns="http://www.w3.org/2000/svg" xmlns:xlink="http://www.w3.org/1999/xlink" width="142.381" height="48.172" viewBox="0 0 142.381 48.172">
  <defs>
    <clipPath id="clip-path">
      <rect id="Rectangle_1673" data-name="Rectangle 1673" width="142.381" height="48.172" fill="none"/>
    </clipPath>
  </defs>
  <g id="Group_834" data-name="Group 834" transform="translate(0)">
    <path id="Path_934" data-name="Path 934" d="M20.912.344v18.82L6.84.344H0v30.5H7.275V12.063L21.3,30.84h6.84V.344Z" transform="translate(0 -0.239)" fill="#0f559a"/>
    <path id="Path_935" data-name="Path 935" d="M112.556,6.443V12.5h14.551v6.1H112.556v6.143h16.6v6.1H104.8V.344h23.874v6.1Z" transform="translate(-72.854 -0.239)" fill="#0f559a"/>
    <path id="Path_936" data-name="Path 936" d="M290.261,0l-6.475,18.167L275.508,0h-8.5l5.045,10.774,9.2,19.993h5.053l7.319-18.412.044,18.184h6.84V0Z" transform="translate(-185.617 0)" fill="#f21d6f"/>
    <path id="Path_937" data-name="Path 937" d="M209.3,0l-7.319,18.412L201.94.228H195.1V30.768h10.254L211.829,12.6l8.278,18.167h8.5l-5.046-10.774L214.356,0Z" transform="translate(-135.626 0)" fill="#0f559a"/>
    <path id="Path_938" data-name="Path 938" d="M387.181,1.417v30.5h24.353v-6.1h-16.6V19.671h14.551v-6.1H394.935V7.516h16.12v-6.1Z" transform="translate(-269.153 -0.985)" fill="#f21d6f"/>
    <g id="Group_833" data-name="Group 833" transform="translate(0)">
      <g id="Group_832" data-name="Group 832" clip-path="url(#clip-path)">
        <path id="Path_939" data-name="Path 939" d="M4.018,130.492c1.906,0,3.119.806,3.119,2.075a1.867,1.867,0,0,1-1.457,1.826,2.057,2.057,0,0,1,1.748,2.1c0,1.41-1.262,2.3-3.265,2.3H0v-8.3Zm-1.87,3.32H3.9c.632,0,1.032-.332,1.032-.865s-.4-.842-1.032-.842H2.149Zm0,3.354H3.9c.8,0,1.3-.344,1.3-.936,0-.557-.5-.9-1.3-.9H2.149Z" transform="translate(0 -90.713)" fill="#0f559a"/>
        <path id="Path_940" data-name="Path 940" d="M59.672,135.305c0,2.193-1.493,3.58-3.873,3.58s-3.921-1.387-3.921-3.58v-4.813h2.161v4.813a1.691,1.691,0,0,0,1.772,1.814,1.652,1.652,0,0,0,1.712-1.814v-4.813h2.149Z" transform="translate(-36.064 -90.713)" fill="#0f559a"/>
        <path id="Path_941" data-name="Path 941" d="M111.573,131.106l-.814,1.648a6.435,6.435,0,0,0-2.719-.865c-.558,0-.935.2-.935.6,0,1.435,4.492.617,4.492,3.616,0,1.66-1.5,2.537-3.4,2.537a6.436,6.436,0,0,1-3.885-1.328l.838-1.624a5.363,5.363,0,0,0,3.071,1.245c.68,0,1.1-.249,1.1-.723,0-1.47-4.492-.593-4.492-3.533,0-1.529,1.348-2.5,3.387-2.5a6.5,6.5,0,0,1,3.35.924" transform="translate(-72.514 -90.498)" fill="#0f559a"/>
        <path id="Path_942" data-name="Path 942" d="M158.261,138.79h-2.148v-2.62l-3.144-5.679h2.161l2.052,3.616,2-3.616h2.16l-3.083,5.619Z" transform="translate(-106.337 -90.713)" fill="#0f559a"/>
        <path id="Path_943" data-name="Path 943" d="M243.7,130.491c2.671,0,4.516,1.684,4.516,4.149s-1.87,4.149-4.6,4.149h-3.569v-8.3Zm-1.493,6.615h1.541a2.265,2.265,0,0,0,2.27-2.454,2.325,2.325,0,0,0-2.367-2.478H242.2Z" transform="translate(-166.868 -90.712)" fill="#0f559a"/>
        <path id="Path_944" data-name="Path 944" d="M301.826,134.468a4.612,4.612,0,1,1-4.6-4.208,4.339,4.339,0,0,1,4.6,4.208m-6.98.012a2.44,2.44,0,0,0,2.4,2.478,2.467,2.467,0,1,0-2.4-2.478" transform="translate(-203.43 -90.552)" fill="#0f559a"/>
        <rect id="Rectangle_1672" data-name="Rectangle 1672" width="2.161" height="8.298" transform="translate(106.818 39.779)" fill="#0f559a"/>
        <path id="Path_945" data-name="Path 945" d="M392.894,138.79l-3.909-5.109v5.109h-2.027v-8.3h1.906l3.921,5.121v-5.121H394.8v8.3Z" transform="translate(-268.998 -90.713)" fill="#0f559a"/>
        <path id="Path_946" data-name="Path 946" d="M448.383,134.409v3.236a6.79,6.79,0,0,1-3.532,1.079,4.3,4.3,0,0,1-4.54-4.244c0-2.406,2-4.22,4.686-4.22a5.511,5.511,0,0,1,3.472,1.233l-1.214,1.434a3.533,3.533,0,0,0-2.27-.9,2.466,2.466,0,1,0,.024,4.931,3.674,3.674,0,0,0,1.5-.4v-2.145Z" transform="translate(-306.087 -90.552)" fill="#0f559a"/>
      </g>
    </g>
  </g>
</svg>
